<svg xmlns="http://www.w3.org/2000/svg" viewBox="0 0 198 195"><defs><clipPath id="a"><path d="M0 0h198v195H0z"/></clipPath></defs><g clip-path="url(#a)"><path d="M35.063 0h127.875A35.241 35.241 0 01198 35.417v124.166A35.241 35.241 0 01162.938 195H35.063A35.241 35.241 0 010 159.583V35.417A35.241 35.241 0 0135.063 0z" fill="#001e36"/><path d="M103.983 137.35H51.65q-1.33 0-1.328-1.46V51.545a1.057 1.057 0 011.2-1.2h16.2a.823.823 0 01.697.233.82.82 0 01.233.697V120.6h38.12q1.2 0 .93 1.2l-2.4 14.345a1.27 1.27 0 01-.531 1 1.77 1.77 0 01-.798.195zm13.15-66.014H131.6a1.81 1.81 0 011.727 1.328 6.42 6.42 0 01.664 1.859 21.47 21.47 0 01.4 2.59q.13 1.395.133 2.988a31.03 31.03 0 018.833-7.106 24.87 24.87 0 0112.286-2.989 1.05 1.05 0 01.902.298 1.06 1.06 0 01.298.902v16.072q0 .93-1.328.93a33.417 33.417 0 00-15.607 2.8 14.04 14.04 0 00-4.45 3.055v42.102q0 1.2-1.063 1.2h-16.078a1.17 1.17 0 01-.996-.332 1.179 1.179 0 01-.332-.996V90.33q0-2.92-.066-6.176-.066-3.256-.2-6.442a42.11 42.11 0 00-.531-5.446.76.76 0 01.2-.73.77.77 0 01.73-.2z" fill="#31a8ff"/></g></svg>